<?xml version="1.0" encoding="utf-8"?>
<!-- Generator: Adobe Illustrator 26.0.3, SVG Export Plug-In . SVG Version: 6.00 Build 0)  -->
<svg version="1.1" id="Ebene_1" xmlns="http://www.w3.org/2000/svg" xmlns:xlink="http://www.w3.org/1999/xlink" x="0px" y="0px"
	 viewBox="0 0 830 132" style="enable-background:new 0 0 830 132;" xml:space="preserve">
<style type="text/css">
	.st0{fill:#00157A;}
</style>
<g>
	<path class="st0" d="M215.8,6.1c-9.3,0-18.3,0-27.6,0c0,0.7,0,1.4,0,2c0,7.8,0,15.7,0,23.5c0,1.6-0.3,2.1-2,2.1
		c-10.8-0.1-21.6-0.1-32.4,0c-1.7,0-2-0.6-2-2.1c0.1-7.8,0-15.7,0-23.5c0-0.7-0.1-1.3-0.1-2c-9.2,0-18.1,0-27.4,0c0,0.8,0,1.3,0,1.9
		c0,7.9,0,15.9,0,23.8c0,1.5-0.5,1.9-1.9,1.9c-3.5-0.1-7.1,0-10.6,0c-1,0-1.4,0.3-1.4,1.4c0,5.5,0,11.1,0,16.6
		c0,1.1,0.4,1.4,1.4,1.4c3.4,0,6.9,0,10.3,0c2.2,0,2.2,0,2.2,2.2c0,15.3,0,30.6,0,45.9c0,2.9,0.1,5.9,0.4,8.8
		c0.8,9.2,5.8,15.4,14.7,18.1c9.9,3,19.8,1.7,29.7,0.2c0-7.3,0-14.4,0-21.7c-0.9,0-1.7,0-2.5,0c-2.7,0.1-5.4,0.3-8.1,0.3
		c-4,0-6.2-2.2-6.5-6.1c-0.1-1.1-0.2-2.1-0.2-3.2c0-14.2,0-28.4,0-42.5c0-1.7,0.6-2,2.1-2c10.7,0.1,21.4,0,32.1,0
		c2.2,0,2.2,0,2.2,2.2c0,15.4,0,30.7,0,46.1c0,2.7,0.1,5.4,0.3,8c0.8,10.2,6,16.5,16,19.1c9.5,2.6,19,1.3,28.6-0.2
		c0-7.2,0-14.4,0-21.7c-0.9,0-1.7,0-2.5,0c-2.7,0.1-5.4,0.3-8.1,0.3c-4.1,0-6.4-2.3-6.6-6.3c-0.1-1-0.1-1.9-0.1-2.9
		c0-14.2,0-28.5,0-42.7c0-0.6,0-1.1,0-2c6.3,0,12.5,0,18.6,0c0-6.5,0-12.8,0-19.3c-6.2,0-12.3,0-18.6,0
		C215.8,24.3,215.8,15.2,215.8,6.1z"/>
	<path class="st0" d="M450.4,49c-7.6-11.5-18.4-17.5-32.1-18.1c-10.5-0.4-19.9,2.6-27.2,10.5c-0.2,0.2-0.5,0.4-1.1,0.9
		c0-1.1,0-1.7,0-2.3c0-12.7,0-25.4,0-38.2c0-1.5-0.4-1.9-1.9-1.9c-7.8,0.1-15.6,0.1-23.4,0c-1.6,0-1.9,0.5-1.9,2
		c0,41.7,0,83.3,0,125c0,0.6,0.1,1.2,0.1,1.8c9,0,17.8,0,26.7,0c-0.3-3.2-0.7-6.4-1-9.8c0.5,0.4,0.6,0.4,0.7,0.5
		c6.5,7.4,14.7,11.2,24.4,11.8c8,0.5,15.7-0.7,22.7-4.7c8.7-4.9,14.1-12.6,17.4-21.8c4.3-11.7,5.1-23.9,3.5-36.2
		C456.4,61.7,454.3,55,450.4,49z M430.9,80.1c0,6.7-0.6,12.8-3,18.6c-2.4,5.9-6.3,10.3-12.8,11.6c-10.2,2.1-19.4-1.6-23.1-12.7
		c-3.7-11.1-3.9-22.4,0-33.5c3.8-10.9,15.3-15.7,26.1-11.5c5.8,2.3,8.9,7,10.8,12.7C430.4,70.3,430.9,75.4,430.9,80.1z"/>
	<path class="st0" d="M741.9,69c-0.7-1.1-0.6-1.8,0.3-2.7c5.2-5.3,10.4-10.7,15.6-16.1c5.2-5.4,10.5-10.8,16-16.6c-1,0-1.6,0-2.2,0
		c-9.8,0-19.7,0-29.5,0c-1.3,0-2.3,0.4-3.2,1.4c-9.4,10-18.9,20-28.3,30c-0.4,0.4-0.8,0.7-1.5,1.4c0-22.4,0-44.3,0-66.3
		c-0.7,0-1.2-0.1-1.7-0.1c-7.9,0-15.8,0-23.7,0c-1.6,0-2,0.5-2,2c0,41.7,0,83.3,0,125c0,0.6,0.1,1.2,0.1,1.8c9.1,0,18,0,27.1,0
		c0-0.8,0-1.5,0-2.2c0-8.5,0-17.1,0-25.6c0-1.2,0.4-2.1,1.3-2.9c2.8-2.6,5.5-5.3,8.3-7.9c0.8-0.8,1.7-1.6,2.7-2.5
		c0.4,0.7,0.8,1.2,1.1,1.8c7.5,12.6,15,25.2,22.5,37.8c0.8,1.3,1.6,1.7,3,1.7c9.5-0.1,18.9,0,28.4,0c0.6,0,1.1,0,1.9,0
		c-0.4-0.7-0.6-1.1-0.9-1.6C765.5,107.9,753.7,88.4,741.9,69z"/>
	<path class="st0" d="M540.4,33.9c-13.5-4.4-27.3-4.5-40.9,0.1c-13.7,4.6-23.1,13.8-27.8,27.5c-3.9,11.2-4.2,22.7-1.6,34.3
		c3.6,15.9,13.2,26.8,28.5,32.5c11.5,4.3,23.3,4.7,35.2,2.2c12.8-2.7,23-9.3,29.9-20.6c5.3-8.8,7.4-18.4,7.6-29
		c-0.1-5.1-0.7-10.5-2.2-15.8C564.8,49.9,555.7,38.9,540.4,33.9z M539.9,96.4c-7,16.5-25.7,15.7-34,8.4c-5-4.4-7.3-10.1-8.3-16.5
		c-0.4-2.4-0.5-4.8-0.6-6.3c0.2-6.5,0.8-11.9,3.1-17.1c4.4-9.6,12.9-12.9,22.1-12.3c9.2,0.7,15.1,5.8,18.2,14.2
		C543.9,76.8,544,86.7,539.9,96.4z"/>
	<path class="st0" d="M74.7,34.8c-7.5-3-15.3-4.1-23.3-4.1c0-0.2-10.2,0.6-15.2,1.7C19.8,36.4,8.4,46.1,3,62.2
		c-3.9,11.6-4,23.5-0.8,35.4C6,112,15,122.1,28.8,127.6c13.4,5.3,27.1,5.7,40.9,1.7c13.2-3.8,22.7-12,28.2-24.5
		c6.7-15.4,6.7-31,0.4-46.4C93.8,47.3,85.9,39.4,74.7,34.8z M71,97.6c-4.2,8.3-11,12.4-20.3,12.1c-9.1-0.3-15.5-4.8-19.2-13.1
		c-2.6-6-3.2-12.3-2.8-18.7c0.3-4.2,1.1-8.4,2.8-12.3c4.3-9.9,12.9-13.5,22.4-12.7c10.3,0.9,16.1,7.2,18.9,16.5
		c1.2,3.9,1.5,8.1,1.8,10.1C74.4,87.1,73.5,92.5,71,97.6z"/>
	<path class="st0" d="M317.1,33.3c-12.6-3.7-25.4-3.7-38,0.2c-12.7,3.9-22.1,11.9-27.6,24.2c-3.4,7.5-4.6,15.4-4.6,24.1
		c0.1,1.5,0.1,3.5,0.3,5.6c0.1,1.6,0.3,3.2,0.6,4.8c2.7,16,10.9,28,25.9,34.7c13.8,6.2,28.2,6.7,42.7,2.6
		c13.2-3.7,22.8-12,28.4-24.5c6.5-14.6,6.6-29.6,1.2-44.5C340.8,46.6,331.2,37.4,317.1,33.3z M319.1,94.2
		c-3.5,10.3-11.3,15.8-21.6,15.5c-10-0.2-17.6-6.2-20.5-16.5c-1.1-3.9-1.9-12-1.7-12c0-5.5,0.7-10.8,2.9-15.9
		c4.3-9.8,12.9-13.2,22.2-12.6c9.2,0.7,15.1,5.8,18.2,14.1C322.1,75.9,322.3,85.1,319.1,94.2z"/>
	<path class="st0" d="M649.9,97.8c-3.6,8.1-11.2,12.8-19.9,11.9c-7-0.8-12.1-4.8-15.1-11C609,86.5,609.3,74,615.5,62
		c5.7-10.9,18.8-13,28.2-5.1c2.8,2.3,4.7,5.3,6.3,8.6c6.9-3.9,13.8-7.8,20.6-11.8c-4.7-8.1-11.1-14.2-19.4-18.2
		c-10-4.8-20.6-5.8-31.4-3.8c-15,2.8-26,10.9-32.5,24.9c-5.7,12.3-6.5,25.1-4,38.3c1.8,9.9,6.1,18.6,13.9,25.2
		c11.8,9.9,25.4,13.7,40.6,11.1c15.3-2.6,26.1-11.5,33.9-24.7c-6.9-3.6-13.8-7.1-20.9-10.8C650.5,96.6,650.2,97.2,649.9,97.8z"/>
	<path class="st0" d="M807.7,92.3c-10.5,0-18.9,8.2-19,18.5c0,10.4,8.3,18.8,18.7,18.8c10.6,0,19-8.2,19-18.6
		C826.5,100.7,818.1,92.4,807.7,92.3z"/>
</g>
</svg>
